<svg xmlns="http://www.w3.org/2000/svg" version="1.1" xmlns:xlink="http://www.w3.org/1999/xlink" xmlns:svgjs="http://svgjs.com/svgjs" width="1450" height="700" preserveAspectRatio="none" viewBox="0 0 1450 700"><g mask="url(&quot;#SvgjsMask4378&quot;)" fill="none"><rect width="1450" height="700" x="0" y="0" fill="url(#SvgjsLinearGradient4379)"></rect><path d="M876.812,739.603C914.645,738.669,945.749,713.536,965.04,680.977C984.784,647.655,993.772,607.212,975.483,573.07C956.276,537.214,917.486,516.617,876.812,516.266C835.506,515.91,795.546,535.422,775.149,571.343C754.982,606.859,759.58,650.57,780.701,685.527C801.076,719.249,837.425,740.575,876.812,739.603" fill="rgba(147, 95, 0, 0.27)" class="triangle-float1"></path><path d="M722.617,512.563C756.607,512.208,782.009,484.275,797.7,454.121C812.059,426.528,812.613,394.691,798.336,367.055C782.669,336.728,756.751,309.011,722.617,308.786C688.202,308.56,661.265,335.636,645.152,366.047C630.153,394.356,629.791,427.398,644.765,455.72C660.862,486.165,688.18,512.923,722.617,512.563" fill="rgba(147, 95, 0, 0.27)" class="triangle-float2"></path><path d="M452.971,239.006C506.949,234.851,548.973,198.144,576.853,151.737C605.814,103.529,624.893,45.826,599.024,-4.11C571.394,-57.447,513.001,-89.556,452.971,-87.403C396.169,-85.366,353.966,-42.546,324.003,5.754C291.759,57.732,261.371,120.216,290.968,173.746C321.161,228.353,390.757,243.795,452.971,239.006" fill="rgba(147, 95, 0, 0.27)" class="triangle-float3"></path><path d="M1066.701,435.981C1127.198,434.32,1170.445,383.419,1198.825,329.966C1225.135,280.412,1231.431,223.25,1206.273,173.102C1178.147,117.037,1129.375,64.091,1066.701,66.595C1006.502,69,973.67,130.439,945.198,183.534C918.88,232.612,897.236,287.402,921.387,337.581C948.578,394.076,1004.027,437.701,1066.701,435.981" fill="rgba(147, 95, 0, 0.27)" class="triangle-float3"></path><path d="M205.433,906.919C280.662,907.811,336.329,844.697,372.506,778.732C407.034,715.774,419.442,641.576,385.72,578.183C349.972,510.981,281.54,465.936,205.433,464.652C127.138,463.331,50.249,502.354,14.291,571.916C-19.383,637.058,8.742,711.157,45.083,774.85C81.863,839.312,131.221,906.039,205.433,906.919" fill="rgba(147, 95, 0, 0.27)" class="triangle-float2"></path><path d="M1277.984,171.189C1298.509,170.367,1318.089,161.768,1328.757,144.214C1339.846,125.966,1341.26,103.023,1330.68,84.476C1320.009,65.77,1299.519,55.019,1277.984,55.208C1256.776,55.394,1238.101,67.398,1226.862,85.385C1214.819,104.659,1208.005,129.062,1219.638,148.586C1231.08,167.791,1255.647,172.084,1277.984,171.189" fill="rgba(147, 95, 0, 0.27)" class="triangle-float3"></path><path d="M246.575,542.783C285.575,542.39,328.201,538.614,349.289,505.805C371.735,470.885,365.852,425.572,344.977,389.691C324.23,354.03,287.751,326.667,246.575,329.254C208.539,331.644,186.983,368.095,167.487,400.842C147.294,434.76,120.999,473.429,140.212,507.912C159.676,542.845,206.587,543.186,246.575,542.783" fill="rgba(147, 95, 0, 0.27)" class="triangle-float2"></path></g><defs><mask id="SvgjsMask4378"><rect width="1450" height="700" fill="#ffffff"></rect></mask><linearGradient x1="50%" y1="0%" x2="50%" y2="100%" gradientUnits="userSpaceOnUse" id="SvgjsLinearGradient4379"><stop stop-color="rgba(41, 26, 0, 1)" offset="0"></stop><stop stop-color="rgba(0, 0, 0, 1)" offset="0.61"></stop></linearGradient><style>
            @keyframes float1 {
                0%{transform: translate(0, 0)}
                50%{transform: translate(-10px, 0)}
                100%{transform: translate(0, 0)}
            }

            .triangle-float1 {
                animation: float1 5s infinite;
            }

            @keyframes float2 {
                0%{transform: translate(0, 0)}
                50%{transform: translate(-5px, -5px)}
                100%{transform: translate(0, 0)}
            }

            .triangle-float2 {
                animation: float2 4s infinite;
            }

            @keyframes float3 {
                0%{transform: translate(0, 0)}
                50%{transform: translate(0, -10px)}
                100%{transform: translate(0, 0)}
            }

            .triangle-float3 {
                animation: float3 6s infinite;
            }
        </style></defs></svg>