<svg xmlns="http://www.w3.org/2000/svg" version="1.1" xmlns:xlink="http://www.w3.org/1999/xlink" xmlns:svgjs="http://svgjs.com/svgjs" width="1450" height="700" preserveAspectRatio="none" viewBox="0 0 1450 700"><g mask="url(&quot;#SvgjsMask1109&quot;)" fill="none"><rect width="1450" height="700" x="0" y="0" fill="rgba(33, 33, 33, 1)"></rect><path d="M178.07 440.14 a122.01 122.01 0 1 0 244.02 0 a122.01 122.01 0 1 0 -244.02 0z" fill="rgba(117, 76, 0, 0.23)" class="triangle-float1"></path><path d="M628.1 250.92 a160.18 160.18 0 1 0 320.36 0 a160.18 160.18 0 1 0 -320.36 0z" fill="rgba(117, 76, 0, 0.23)" class="triangle-float2"></path><path d="M-6.46 542.44 a165.98 165.98 0 1 0 331.96 0 a165.98 165.98 0 1 0 -331.96 0z" fill="rgba(117, 76, 0, 0.23)" class="triangle-float3"></path><path d="M1202.83 648.12 a196.35 196.35 0 1 0 392.7 0 a196.35 196.35 0 1 0 -392.7 0z" fill="rgba(117, 76, 0, 0.23)" class="triangle-float3"></path><path d="M1001.56 284.01 a193.81 193.81 0 1 0 387.62 0 a193.81 193.81 0 1 0 -387.62 0z" fill="rgba(117, 76, 0, 0.23)" class="triangle-float3"></path><path d="M495.24 77.09 a218.29 218.29 0 1 0 436.58 0 a218.29 218.29 0 1 0 -436.58 0z" fill="rgba(117, 76, 0, 0.23)" class="triangle-float3"></path></g><defs><mask id="SvgjsMask1109"><rect width="1450" height="700" fill="#ffffff"></rect></mask><style>
            @keyframes float1 {
                0%{transform: translate(0, 0)}
                50%{transform: translate(-10px, 0)}
                100%{transform: translate(0, 0)}
            }

            .triangle-float1 {
                animation: float1 5s infinite;
            }

            @keyframes float2 {
                0%{transform: translate(0, 0)}
                50%{transform: translate(-5px, -5px)}
                100%{transform: translate(0, 0)}
            }

            .triangle-float2 {
                animation: float2 4s infinite;
            }

            @keyframes float3 {
                0%{transform: translate(0, 0)}
                50%{transform: translate(0, -10px)}
                100%{transform: translate(0, 0)}
            }

            .triangle-float3 {
                animation: float3 6s infinite;
            }
        </style></defs></svg>