<svg xmlns="http://www.w3.org/2000/svg" version="1.1" xmlns:xlink="http://www.w3.org/1999/xlink" xmlns:svgjs="http://svgjs.com/svgjs" width="1450" height="700" preserveAspectRatio="none" viewBox="0 0 1450 700"><g mask="url(&quot;#SvgjsMask4455&quot;)" fill="none"><rect width="1450" height="700" x="0" y="0" fill="rgba(16, 16, 16, 1)"></rect><path d="M751.069,585.229C768.353,585.468,785.912,579.745,795.056,565.076C804.695,549.612,803.702,530.305,795.424,514.072C786.228,496.038,771.293,479.684,751.069,478.813C729.588,477.888,709.069,490.658,699.564,509.944C690.911,527.501,698.09,547.733,709.142,563.887C718.633,577.759,734.263,584.996,751.069,585.229" fill="rgba(219, 141, 0, 0.07)" class="triangle-float2"></path><path d="M445.924,460.885C485.224,459.316,524.486,445.128,544.071,411.02C563.587,377.033,555.311,336.399,537.434,301.521C517.412,262.457,489.798,220.916,445.924,219.533C400.503,218.101,366.163,255.833,343.841,295.417C321.997,334.154,309.848,381.589,333.198,419.437C355.728,455.956,403.049,462.596,445.924,460.885" fill="rgba(219, 141, 0, 0.07)" class="triangle-float2"></path><path d="M1105.017,135.388C1132.621,137.042,1162.167,130.037,1176.877,106.62C1192.367,81.961,1188.523,50.543,1174.265,25.151C1159.674,-0.833,1134.797,-22.449,1105.017,-21.349C1076.581,-20.298,1056.528,4.364,1044.1,29.961C1033.348,52.106,1034.357,77.501,1046.673,98.816C1058.981,120.117,1080.46,133.916,1105.017,135.388" fill="rgba(219, 141, 0, 0.07)" class="triangle-float2"></path><path d="M279.892,818.073C316.647,815.141,349.606,798.85,370.335,768.357C394.52,732.781,413.86,688.422,393.954,650.286C373.005,610.152,325.158,595.811,279.892,595.084C233.06,594.332,184.227,606.862,159.301,646.516C132.951,688.435,131.978,744.592,160.451,785.099C185.909,821.316,235.763,821.593,279.892,818.073" fill="rgba(219, 141, 0, 0.07)" class="triangle-float3"></path><path d="M-25.913,269.146C-0.702,269.028,26.723,262.353,38.344,239.98C49.411,218.674,36.267,194.67,23.252,174.495C11.661,156.527,-4.619,142.306,-25.913,140.369C-51.363,138.054,-79.518,142.467,-93.47,163.877C-108.44,186.848,-106.033,217.513,-91.224,240.588C-77.47,262.02,-51.379,269.266,-25.913,269.146" fill="rgba(219, 141, 0, 0.07)" class="triangle-float3"></path><path d="M123.885,359.765C160.638,361.935,196.533,341.996,213.852,309.507C230.327,278.601,221.648,241.509,202.588,212.126C185.306,185.484,155.636,170.234,123.885,170.811C93.147,171.37,65.163,188.163,49.984,214.898C34.996,241.298,36.818,272.825,50.613,299.868C65.977,329.986,90.133,357.772,123.885,359.765" fill="rgba(219, 141, 0, 0.07)" class="triangle-float2"></path><path d="M1070.159,797.906C1113.326,797.811,1159.576,784.59,1179.378,746.233C1198.143,709.884,1174.812,669.988,1154.536,634.46C1133.994,598.466,1111.522,557.436,1070.159,554.858C1025.649,552.084,987.549,583.986,965.359,622.669C943.287,661.146,937.336,708.647,960.103,746.716C982.36,783.932,1026.795,798.002,1070.159,797.906" fill="rgba(219, 141, 0, 0.07)" class="triangle-float2"></path><path d="M550.050108212385 190.29421110239457L494.54877382088324 65.63617305832696 425.3920701683174 245.79554549389633z" fill="rgba(219, 141, 0, 0.07)" class="triangle-float1"></path><path d="M926.0121202723388 272.54755344031605L832.6231713166381 243.99568643538163 836.4898452870868 398.35504337139986z" fill="rgba(219, 141, 0, 0.07)" class="triangle-float1"></path><path d="M260.0127627712724 39.562210020693186L158.32687753014912 91.37375640541543 311.8243091559946 141.24809526181645z" fill="rgba(219, 141, 0, 0.07)" class="triangle-float3"></path></g><defs><mask id="SvgjsMask4455"><rect width="1450" height="700" fill="#ffffff"></rect></mask><style>
            @keyframes float1 {
                0%{transform: translate(0, 0)}
                50%{transform: translate(-10px, 0)}
                100%{transform: translate(0, 0)}
            }

            .triangle-float1 {
                animation: float1 5s infinite;
            }

            @keyframes float2 {
                0%{transform: translate(0, 0)}
                50%{transform: translate(-5px, -5px)}
                100%{transform: translate(0, 0)}
            }

            .triangle-float2 {
                animation: float2 4s infinite;
            }

            @keyframes float3 {
                0%{transform: translate(0, 0)}
                50%{transform: translate(0, -10px)}
                100%{transform: translate(0, 0)}
            }

            .triangle-float3 {
                animation: float3 6s infinite;
            }
        </style></defs></svg>