<svg id="visual" viewBox="0 0 960 300" width="960" height="300" xmlns="http://www.w3.org/2000/svg" xmlns:xlink="http://www.w3.org/1999/xlink" version="1.1"><rect x="0" y="0" width="960" height="300" fill="#101010"></rect><path d="M0 198L16 188.7C32 179.3 64 160.7 96 157.7C128 154.7 160 167.3 192 168.3C224 169.3 256 158.7 288 166.2C320 173.7 352 199.3 384 210.8C416 222.3 448 219.7 480 206.2C512 192.7 544 168.3 576 173C608 177.7 640 211.3 672 214C704 216.7 736 188.3 768 184.2C800 180 832 200 864 201C896 202 928 184 944 175L960 166L960 0L944 0C928 0 896 0 864 0C832 0 800 0 768 0C736 0 704 0 672 0C640 0 608 0 576 0C544 0 512 0 480 0C448 0 416 0 384 0C352 0 320 0 288 0C256 0 224 0 192 0C160 0 128 0 96 0C64 0 32 0 16 0L0 0Z" fill="#624000"></path><path d="M0 131L16 140.8C32 150.7 64 170.3 96 173.2C128 176 160 162 192 148.2C224 134.3 256 120.7 288 116.2C320 111.7 352 116.3 384 126C416 135.7 448 150.3 480 153.2C512 156 544 147 576 140.3C608 133.7 640 129.3 672 135.5C704 141.7 736 158.3 768 155.5C800 152.7 832 130.3 864 131.7C896 133 928 158 944 170.5L960 183L960 0L944 0C928 0 896 0 864 0C832 0 800 0 768 0C736 0 704 0 672 0C640 0 608 0 576 0C544 0 512 0 480 0C448 0 416 0 384 0C352 0 320 0 288 0C256 0 224 0 192 0C160 0 128 0 96 0C64 0 32 0 16 0L0 0Z" fill="#875800"></path><path d="M0 129L16 126.5C32 124 64 119 96 116.2C128 113.3 160 112.7 192 115.2C224 117.7 256 123.3 288 126.7C320 130 352 131 384 130.3C416 129.7 448 127.3 480 128.8C512 130.3 544 135.7 576 129.7C608 123.7 640 106.3 672 97.7C704 89 736 89 768 97.3C800 105.7 832 122.3 864 130.2C896 138 928 137 944 136.5L960 136L960 0L944 0C928 0 896 0 864 0C832 0 800 0 768 0C736 0 704 0 672 0C640 0 608 0 576 0C544 0 512 0 480 0C448 0 416 0 384 0C352 0 320 0 288 0C256 0 224 0 192 0C160 0 128 0 96 0C64 0 32 0 16 0L0 0Z" fill="#ae7200"></path><path d="M0 37L16 42.7C32 48.3 64 59.7 96 62.3C128 65 160 59 192 53.8C224 48.7 256 44.3 288 42.8C320 41.3 352 42.7 384 43C416 43.3 448 42.7 480 45.8C512 49 544 56 576 56.2C608 56.3 640 49.7 672 45.8C704 42 736 41 768 40.2C800 39.3 832 38.7 864 45.5C896 52.3 928 66.7 944 73.8L960 81L960 0L944 0C928 0 896 0 864 0C832 0 800 0 768 0C736 0 704 0 672 0C640 0 608 0 576 0C544 0 512 0 480 0C448 0 416 0 384 0C352 0 320 0 288 0C256 0 224 0 192 0C160 0 128 0 96 0C64 0 32 0 16 0L0 0Z" fill="#d88c00"></path></svg>